{
  "accessors": [
    {
      "bufferView": 2,
      "componentType": 5126,
      "count": 65532,
      "max": [
        3.4418330192565918,
        3.2460629940032959,
        13.199511528015137
      ],
      "min": [
        -0.17413200438022614,
        -3.5324990749359131,
        0.97890299558639526
      ],
      "type": "VEC3"
    },
    {
      "bufferView": 2,
      "byteOffset": 786384,
      "componentType": 5126,
      "count": 65532,
      "max": [
        0.99997007846832275,
        0.9999929666519165,
        0.99997353553771973
      ],
      "min": [
        -0.99968153238296509,
        -0.99995934963226318,
        -0.99992752075195312
      ],
      "type": "VEC3"
    },
    {
      "bufferView": 3,
      "componentType": 5126,
      "count": 65532,
      "max": [
        0.99996292591094971,
        0.99999964237213135,
        0.99999678134918213,
        1
      ],
      "min": [
        -0.99994707107543945,
        -0.99991875886917114,
        -0.99999451637268066,
        1
      ],
      "type": "VEC4"
    },
    {
      "bufferView": 1,
      "componentType": 5126,
      "count": 65532,
      "max": [
        0.99904400110244751,
        0.99904501438140869
      ],
      "min": [
        0.00095399998826906085,
        0.00095399998826906085
      ],
      "type": "VEC2"
    },
    {
      "bufferView": 0,
      "componentType": 5125,
      "count": 374547,
      "max": [
        65531
      ],
      "min": [
        0
      ],
      "type": "SCALAR"
    },
    {
      "bufferView": 2,
      "byteOffset": 1572768,
      "componentType": 5126,
      "count": 65532,
      "max": [
        3.2101709842681885,
        3.3283250331878662,
        13.161815643310547
      ],
      "min": [
        -3.4884870052337646,
        -3.5204620361328125,
        0.97822797298431396
      ],
      "type": "VEC3"
    },
    {
      "bufferView": 2,
      "byteOffset": 2359152,
      "componentType": 5126,
      "count": 65532,
      "max": [
        0.99877393245697021,
        0.99999368190765381,
        0.99991238117218018
      ],
      "min": [
        -0.99998319149017334,
        -0.99998223781585693,
        -0.99996685981750488
      ],
      "type": "VEC3"
    },
    {
      "bufferView": 3,
      "byteOffset": 1048512,
      "componentType": 5126,
      "count": 65532,
      "max": [
        0.99989145994186401,
        0.99985367059707642,
        0.99993991851806641,
        1
      ],
      "min": [
        -0.99998092651367188,
        -0.9999701976776123,
        -0.99998927116394043,
        1
      ],
      "type": "VEC4"
    },
    {
      "bufferView": 1,
      "byteOffset": 524256,
      "componentType": 5126,
      "count": 65532,
      "max": [
        0.98335999250411987,
        0.99904400110244751
      ],
      "min": [
        0.00095399998826906085,
        0.00095399998826906085
      ],
      "type": "VEC2"
    },
    {
      "bufferView": 0,
      "byteOffset": 1498188,
      "componentType": 5125,
      "count": 374031,
      "max": [
        65531
      ],
      "min": [
        0
      ],
      "type": "SCALAR"
    },
    {
      "bufferView": 2,
      "byteOffset": 3145536,
      "componentType": 5126,
      "count": 7049,
      "max": [
        0.0046439999714493752,
        3.0915179252624512,
        12.692621231079102
      ],
      "min": [
        -3.2898540496826172,
        -3.4151430130004883,
        2.3334419727325439
      ],
      "type": "VEC3"
    },
    {
      "bufferView": 2,
      "byteOffset": 3230124,
      "componentType": 5126,
      "count": 7049,
      "max": [
        0.90706616640090942,
        0.99887984991073608,
        0.99790060520172119
      ],
      "min": [
        -0.99862319231033325,
        -0.99995803833007812,
        -0.9917532205581665
      ],
      "type": "VEC3"
    },
    {
      "bufferView": 3,
      "byteOffset": 2097024,
      "componentType": 5126,
      "count": 7049,
      "max": [
        0.99995923042297363,
        0.988628089427948,
        0.99999874830245972,
        1
      ],
      "min": [
        -0.94913309812545776,
        -0.99746203422546387,
        -0.99295312166213989,
        1
      ],
      "type": "VEC4"
    },
    {
      "bufferView": 1,
      "byteOffset": 1048512,
      "componentType": 5126,
      "count": 7049,
      "max": [
        0.98817402124404907,
        0.99904400110244751
      ],
      "min": [
        0.70385599136352539,
        0.39588800072669983
      ],
      "type": "VEC2"
    },
    {
      "bufferView": 0,
      "byteOffset": 2994312,
      "componentType": 5125,
      "count": 38562,
      "max": [
        7048
      ],
      "min": [
        0
      ],
      "type": "SCALAR"
    }
  ],
  "asset": {
    "extras": {
      "author": "Dulce Dotcom (https://sketchfab.com/dulceriver)",
      "license": "CC-BY-4.0 (http://creativecommons.org/licenses/by/4.0/)",
      "source": "https://sketchfab.com/models/ffb287f14ec9457e9644d22d4a3b991d",
      "title": "Atat-alien"
    },
    "generator": "Sketchfab-3.28.5",
    "version": "2.0"
  },
  "bufferViews": [
    {
      "buffer": 0,
      "byteLength": 3148560,
      "byteOffset": 0,
      "name": "floatBufferViews",
      "target": 34963
    },
    {
      "buffer": 0,
      "byteLength": 1104904,
      "byteOffset": 3148560,
      "byteStride": 8,
      "name": "floatBufferViews",
      "target": 34962
    },
    {
      "buffer": 0,
      "byteLength": 3314712,
      "byteOffset": 4253464,
      "byteStride": 12,
      "name": "floatBufferViews",
      "target": 34962
    },
    {
      "buffer": 0,
      "byteLength": 2209808,
      "byteOffset": 7568176,
      "byteStride": 16,
      "name": "floatBufferViews",
      "target": 34962
    }
  ],
  "buffers": [
    {
      "byteLength": 9777984,
      "uri": "scene.bin"
    }
  ],
  "images": [
    {
      "uri": "textures/Material.001_baseColor.png"
    }
  ],
  "materials": [
    {
      "doubleSided": true,
      "emissiveFactor": [
        0,
        0,
        0
      ],
      "name": "Material.001",
      "pbrMetallicRoughness": {
        "baseColorFactor": [
          1,
          1,
          1,
          1
        ],
        "baseColorTexture": {
          "index": 0,
          "texCoord": 0
        },
        "metallicFactor": 0,
        "roughnessFactor": 0.84349154199999998
      }
    }
  ],
  "meshes": [
    {
      "primitives": [
        {
          "attributes": {
            "NORMAL": 1,
            "POSITION": 0,
            "TANGENT": 2,
            "TEXCOORD_0": 3
          },
          "indices": 4,
          "material": 0,
          "mode": 4
        }
      ]
    },
    {
      "primitives": [
        {
          "attributes": {
            "NORMAL": 6,
            "POSITION": 5,
            "TANGENT": 7,
            "TEXCOORD_0": 8
          },
          "indices": 9,
          "material": 0,
          "mode": 4
        }
      ]
    },
    {
      "primitives": [
        {
          "attributes": {
            "NORMAL": 11,
            "POSITION": 10,
            "TANGENT": 12,
            "TEXCOORD_0": 13
          },
          "indices": 14,
          "material": 0,
          "mode": 4
        }
      ]
    }
  ],
  "nodes": [
    {
      "children": [
        1
      ],
      "name": "RootNode (gltf orientation matrix)",
      "rotation": [
        -0.70710678118654746,
        -0,
        -0,
        0.70710678118654757
      ]
    },
    {
      "children": [
        2
      ],
      "name": "RootNode (model correction matrix)"
    },
    {
      "children": [
        3,
        4,
        5
      ],
      "name": "atat-alien.obj.cleaner.materialmerger.gles"
    },
    {
      "mesh": 0,
      "name": ""
    },
    {
      "mesh": 1,
      "name": ""
    },
    {
      "mesh": 2,
      "name": ""
    }
  ],
  "samplers": [
    {
      "magFilter": 9729,
      "minFilter": 9987,
      "wrapS": 10497,
      "wrapT": 10497
    }
  ],
  "scene": 0,
  "scenes": [
    {
      "name": "OSG_Scene",
      "nodes": [
        0
      ]
    }
  ],
  "textures": [
    {
      "sampler": 0,
      "source": 0
    }
  ]
}

