{
  "accessors": [
    {
      "bufferView": 2,
      "componentType": 5126,
      "count": 647,
      "max": [
        23.646890640258789,
        155.860107421875,
        13.376469612121582
      ],
      "min": [
        -21.555999755859375,
        112.11399841308594,
        -16.191980361938477
      ],
      "type": "VEC3"
    },
    {
      "bufferView": 2,
      "byteOffset": 7764,
      "componentType": 5126,
      "count": 647,
      "max": [
        0.99957817792892456,
        0.99824458360671997,
        0.99949288368225098
      ],
      "min": [
        -0.99995839595794678,
        -0.98982250690460205,
        -0.99874120950698853
      ],
      "type": "VEC3"
    },
    {
      "bufferView": 3,
      "componentType": 5126,
      "count": 647,
      "max": [
        0.99993503093719482,
        0.99212539196014404,
        0.99411708116531372,
        1
      ],
      "min": [
        -0.99986344575881958,
        -0.98584926128387451,
        -0.99983322620391846,
        -1
      ],
      "type": "VEC4"
    },
    {
      "bufferView": 1,
      "componentType": 5126,
      "count": 647,
      "max": [
        0.64156097173690796,
        0.98907202482223511
      ],
      "min": [
        0.0062449569813907146,
        0.13534200191497803
      ],
      "type": "VEC2"
    },
    {
      "bufferView": 0,
      "componentType": 5125,
      "count": 2820,
      "max": [
        646
      ],
      "min": [
        0
      ],
      "type": "SCALAR"
    },
    {
      "bufferView": 2,
      "byteOffset": 15528,
      "componentType": 5126,
      "count": 3293,
      "max": [
        9.30487060546875,
        175.2998046875,
        12.177940368652344
      ],
      "min": [
        -8.7394924163818359,
        153.797607421875,
        -8.5820331573486328
      ],
      "type": "VEC3"
    },
    {
      "bufferView": 2,
      "byteOffset": 55044,
      "componentType": 5126,
      "count": 3293,
      "max": [
        0.99992287158966064,
        0.99984759092330933,
        0.9763718843460083
      ],
      "min": [
        -0.99997502565383911,
        -0.99873220920562744,
        -0.99997109174728394
      ],
      "type": "VEC3"
    },
    {
      "bufferView": 3,
      "byteOffset": 10352,
      "componentType": 5126,
      "count": 3293,
      "max": [
        0,
        0,
        0,
        1
      ],
      "min": [
        0,
        0,
        0,
        1
      ],
      "type": "VEC4"
    },
    {
      "bufferView": 1,
      "byteOffset": 5176,
      "componentType": 5126,
      "count": 3293,
      "max": [
        0,
        0
      ],
      "min": [
        0,
        0
      ],
      "type": "VEC2"
    },
    {
      "bufferView": 0,
      "byteOffset": 11280,
      "componentType": 5125,
      "count": 9330,
      "max": [
        3292
      ],
      "min": [
        0
      ],
      "type": "SCALAR"
    },
    {
      "bufferView": 2,
      "byteOffset": 94560,
      "componentType": 5126,
      "count": 637,
      "max": [
        11.954489707946777,
        177.8677978515625,
        16.545740127563477
      ],
      "min": [
        -11.830490112304688,
        164.60060119628906,
        -10.268429756164551
      ],
      "type": "VEC3"
    },
    {
      "bufferView": 2,
      "byteOffset": 102204,
      "componentType": 5126,
      "count": 637,
      "max": [
        0.99807649850845337,
        0.99953240156173706,
        0.99150931835174561
      ],
      "min": [
        -0.99125921726226807,
        -0.99982160329818726,
        -0.98560398817062378
      ],
      "type": "VEC3"
    },
    {
      "bufferView": 3,
      "byteOffset": 63040,
      "componentType": 5126,
      "count": 637,
      "max": [
        0,
        0,
        0,
        1
      ],
      "min": [
        0,
        0,
        0,
        1
      ],
      "type": "VEC4"
    },
    {
      "bufferView": 1,
      "byteOffset": 31520,
      "componentType": 5126,
      "count": 637,
      "max": [
        0,
        0
      ],
      "min": [
        0,
        0
      ],
      "type": "VEC2"
    },
    {
      "bufferView": 0,
      "byteOffset": 48600,
      "componentType": 5125,
      "count": 3204,
      "max": [
        636
      ],
      "min": [
        0
      ],
      "type": "SCALAR"
    },
    {
      "bufferView": 2,
      "byteOffset": 109848,
      "componentType": 5126,
      "count": 908,
      "max": [
        8.6986236572265625,
        164.67140197753906,
        12.993510246276855
      ],
      "min": [
        -8.3310966491699219,
        160.99679565429688,
        0.15299050509929657
      ],
      "type": "VEC3"
    },
    {
      "bufferView": 2,
      "byteOffset": 120744,
      "componentType": 5126,
      "count": 908,
      "max": [
        0.99351859092712402,
        0.92537742853164673,
        0.98535639047622681
      ],
      "min": [
        -0.94236338138580322,
        -0.91738790273666382,
        -0.97759079933166504
      ],
      "type": "VEC3"
    },
    {
      "bufferView": 3,
      "byteOffset": 73232,
      "componentType": 5126,
      "count": 908,
      "max": [
        0,
        0,
        0,
        1
      ],
      "min": [
        0,
        0,
        0,
        1
      ],
      "type": "VEC4"
    },
    {
      "bufferView": 1,
      "byteOffset": 36616,
      "componentType": 5126,
      "count": 908,
      "max": [
        0,
        0
      ],
      "min": [
        0,
        0
      ],
      "type": "VEC2"
    },
    {
      "bufferView": 0,
      "byteOffset": 61416,
      "componentType": 5125,
      "count": 3852,
      "max": [
        907
      ],
      "min": [
        0
      ],
      "type": "SCALAR"
    },
    {
      "bufferView": 2,
      "byteOffset": 131640,
      "componentType": 5126,
      "count": 6767,
      "max": [
        10.147430419921875,
        168.76910400390625,
        14.634920120239258
      ],
      "min": [
        -9.5348844528198242,
        145.35749816894531,
        -7.8029398918151855
      ],
      "type": "VEC3"
    },
    {
      "bufferView": 2,
      "byteOffset": 212844,
      "componentType": 5126,
      "count": 6767,
      "max": [
        0.99990552663803101,
        0.99956369400024414,
        0.9998239278793335
      ],
      "min": [
        -0.99985349178314209,
        -0.99999082088470459,
        -0.99979680776596069
      ],
      "type": "VEC3"
    },
    {
      "bufferView": 3,
      "byteOffset": 87760,
      "componentType": 5126,
      "count": 6767,
      "max": [
        0,
        0,
        0,
        1
      ],
      "min": [
        0,
        0,
        0,
        1
      ],
      "type": "VEC4"
    },
    {
      "bufferView": 1,
      "byteOffset": 43880,
      "componentType": 5126,
      "count": 6767,
      "max": [
        0,
        0
      ],
      "min": [
        0,
        0
      ],
      "type": "VEC2"
    },
    {
      "bufferView": 0,
      "byteOffset": 76824,
      "componentType": 5125,
      "count": 38571,
      "max": [
        6766
      ],
      "min": [
        0
      ],
      "type": "SCALAR"
    }
  ],
  "asset": {
    "extras": {
      "author": "Dulce Dotcom (https://sketchfab.com/dulceriver)",
      "license": "CC-BY-4.0 (http://creativecommons.org/licenses/by/4.0/)",
      "source": "https://sketchfab.com/models/58bcee87c0324fb8bc270e776afc61bf",
      "title": "Man-bust"
    },
    "generator": "Sketchfab-3.28.5",
    "version": "2.0"
  },
  "bufferViews": [
    {
      "buffer": 0,
      "byteLength": 231108,
      "byteOffset": 0,
      "name": "floatBufferViews",
      "target": 34963
    },
    {
      "buffer": 0,
      "byteLength": 98016,
      "byteOffset": 231108,
      "byteStride": 8,
      "name": "floatBufferViews",
      "target": 34962
    },
    {
      "buffer": 0,
      "byteLength": 294048,
      "byteOffset": 329124,
      "byteStride": 12,
      "name": "floatBufferViews",
      "target": 34962
    },
    {
      "buffer": 0,
      "byteLength": 196032,
      "byteOffset": 623172,
      "byteStride": 16,
      "name": "floatBufferViews",
      "target": 34962
    }
  ],
  "buffers": [
    {
      "byteLength": 819204,
      "uri": "scene.bin"
    }
  ],
  "images": [
    {
      "uri": "textures/Eyewearmat_baseColor.png"
    },
    {
      "uri": "textures/Topmat_baseColor.png"
    },
    {
      "uri": "textures/Hatmat_baseColor.png"
    },
    {
      "uri": "textures/Bodymat_baseColor.png"
    },
    {
      "uri": "textures/Hairmat_baseColor.png"
    }
  ],
  "materials": [
    {
      "doubleSided": true,
      "emissiveFactor": [
        0,
        0,
        0
      ],
      "name": "Topmat",
      "pbrMetallicRoughness": {
        "baseColorFactor": [
          1,
          1,
          1,
          1
        ],
        "baseColorTexture": {
          "index": 1,
          "texCoord": 0
        },
        "metallicFactor": 0,
        "roughnessFactor": 1
      }
    },
    {
      "doubleSided": true,
      "emissiveFactor": [
        0,
        0,
        0
      ],
      "name": "Hairmat",
      "pbrMetallicRoughness": {
        "baseColorFactor": [
          1,
          1,
          1,
          1
        ],
        "baseColorTexture": {
          "index": 4,
          "texCoord": 0
        },
        "metallicFactor": 0,
        "roughnessFactor": 1
      }
    },
    {
      "doubleSided": true,
      "emissiveFactor": [
        0,
        0,
        0
      ],
      "name": "Hatmat",
      "pbrMetallicRoughness": {
        "baseColorFactor": [
          1,
          1,
          1,
          1
        ],
        "baseColorTexture": {
          "index": 2,
          "texCoord": 0
        },
        "metallicFactor": 0,
        "roughnessFactor": 1
      }
    },
    {
      "doubleSided": true,
      "emissiveFactor": [
        0,
        0,
        0
      ],
      "name": "Eyewearmat",
      "pbrMetallicRoughness": {
        "baseColorFactor": [
          1,
          1,
          1,
          1
        ],
        "baseColorTexture": {
          "index": 0,
          "texCoord": 0
        },
        "metallicFactor": 0,
        "roughnessFactor": 1
      }
    },
    {
      "doubleSided": true,
      "emissiveFactor": [
        0,
        0,
        0
      ],
      "name": "Bodymat",
      "pbrMetallicRoughness": {
        "baseColorFactor": [
          1,
          1,
          1,
          1
        ],
        "baseColorTexture": {
          "index": 3,
          "texCoord": 0
        },
        "metallicFactor": 0,
        "roughnessFactor": 1
      }
    }
  ],
  "meshes": [
    {
      "name": "Topmat-material",
      "primitives": [
        {
          "attributes": {
            "NORMAL": 1,
            "POSITION": 0,
            "TANGENT": 2,
            "TEXCOORD_0": 3
          },
          "indices": 4,
          "material": 0,
          "mode": 4
        }
      ]
    },
    {
      "name": "Hairmat-material",
      "primitives": [
        {
          "attributes": {
            "NORMAL": 6,
            "POSITION": 5,
            "TANGENT": 7,
            "TEXCOORD_0": 8
          },
          "indices": 9,
          "material": 1,
          "mode": 4
        }
      ]
    },
    {
      "name": "Hatmat-material",
      "primitives": [
        {
          "attributes": {
            "NORMAL": 11,
            "POSITION": 10,
            "TANGENT": 12,
            "TEXCOORD_0": 13
          },
          "indices": 14,
          "material": 2,
          "mode": 4
        }
      ]
    },
    {
      "name": "Eyewearmat-material",
      "primitives": [
        {
          "attributes": {
            "NORMAL": 16,
            "POSITION": 15,
            "TANGENT": 17,
            "TEXCOORD_0": 18
          },
          "indices": 19,
          "material": 3,
          "mode": 4
        }
      ]
    },
    {
      "name": "Bodymat-material",
      "primitives": [
        {
          "attributes": {
            "NORMAL": 21,
            "POSITION": 20,
            "TANGENT": 22,
            "TEXCOORD_0": 23
          },
          "indices": 24,
          "material": 4,
          "mode": 4
        }
      ]
    }
  ],
  "nodes": [
    {
      "children": [
        1
      ],
      "name": "RootNode (gltf orientation matrix)",
      "rotation": [
        -0.70710678118654746,
        -0,
        -0,
        0.70710678118654757
      ]
    },
    {
      "children": [
        2
      ],
      "name": "RootNode (model correction matrix)"
    },
    {
      "children": [
        3,
        9,
        11
      ],
      "name": "Collada visual scene group"
    },
    {
      "children": [
        4,
        5,
        6,
        7,
        8
      ],
      "matrix": [
        0.094729830000000001,
        0.0078529910000000001,
        0.0012397790000000001,
        0,
        -0.0021559309999999998,
        0.011105520000000001,
        0.094387319999999997,
        0,
        0.0076523520000000003,
        -0.094084780000000007,
        0.01124471,
        0,
        -1.19042e-07,
        -1.559126,
        -6.4767939999999999,
        1
      ],
      "name": "Tops"
    },
    {
      "mesh": 0,
      "name": "Topmat-material"
    },
    {
      "mesh": 1,
      "name": "Hairmat-material"
    },
    {
      "mesh": 2,
      "name": "Hatmat-material"
    },
    {
      "mesh": 3,
      "name": "Eyewearmat-material"
    },
    {
      "mesh": 4,
      "name": "Bodymat-material"
    },
    {
      "children": [
        10
      ],
      "matrix": [
        -0.29086459999999997,
        0.9551712,
        -0.055189059999999998,
        0,
        -0.77110080000000003,
        -0.19988339999999999,
        0.60452470000000003,
        0,
        0.56639320000000004,
        0.21839120000000001,
        0.7946723,
        0,
        0.18040780000000001,
        -5.7075800000000001,
        5.9038620000000002,
        1
      ],
      "name": "Lamp"
    },
    {
      "name": "Lamp"
    },
    {
      "children": [
        12
      ],
      "matrix": [
        0.68592070000000005,
        0.72767630000000005,
        0,
        0,
        -0.32401350000000001,
        0.30542079999999999,
        0.89539559999999996,
        0,
        0.65155819999999998,
        -0.61417040000000001,
        0.44527139999999998,
        0,
        7.4811319999999997,
        -6.5076400000000003,
        5.3436649999999997,
        1
      ],
      "name": "Camera"
    },
    {
      "name": "Camera-camera"
    }
  ],
  "samplers": [
    {
      "magFilter": 9729,
      "minFilter": 9987,
      "wrapS": 10497,
      "wrapT": 10497
    }
  ],
  "scene": 0,
  "scenes": [
    {
      "name": "OSG_Scene",
      "nodes": [
        0
      ]
    }
  ],
  "textures": [
    {
      "sampler": 0,
      "source": 0
    },
    {
      "sampler": 0,
      "source": 1
    },
    {
      "sampler": 0,
      "source": 2
    },
    {
      "sampler": 0,
      "source": 3
    },
    {
      "sampler": 0,
      "source": 4
    }
  ]
}

